<svg xmlns="http://www.w3.org/2000/svg" viewBox="0 0 123.84 123.84"><defs><style>.cls-1{fill:#181818;}.cls-2,.cls-3{fill:#fff;}.cls-3{font-size:12px;font-family:Impact;}.cls-4{letter-spacing:-0.04em;}.cls-5{letter-spacing:-0.02em;}</style></defs><g id="Layer_2" data-name="Layer 2"><g id="Layer_1-2" data-name="Layer 1"><rect class="cls-1" width="123.84" height="123.84" rx="9.6"/><path class="cls-2" d="M51.67,18.75a3.89,3.89,0,0,1,5.25,0L82.1,42a3.87,3.87,0,0,1,1.24,2.84H65.91a7.74,7.74,0,0,0-5.81,2.63V42.9A1.94,1.94,0,0,0,58.17,41H50.42a1.94,1.94,0,0,0-1.94,1.93v7.75a1.94,1.94,0,0,0,1.94,1.94h7.75V68.08H38.8A5.81,5.81,0,0,1,33,62.27V48.71H29.11A3.87,3.87,0,0,1,26.49,42ZM67.85,54.52V72H91.09V54.52ZM62,52.59a3.87,3.87,0,0,1,3.87-3.88H93a3.87,3.87,0,0,1,3.87,3.88V72h3.88a1.94,1.94,0,0,1,1.93,1.93A5.81,5.81,0,0,1,96.9,79.7H62a5.81,5.81,0,0,1-5.81-5.81A1.94,1.94,0,0,1,58.17,72H62Z"/><text class="cls-3" transform="translate(38.09 103.5)">TEK <tspan class="cls-4" x="19.07" y="0">T</tspan><tspan x="24.12" y="0">AS</tspan><tspan class="cls-5" x="36.42" y="0">K</tspan><tspan x="42.68" y="0">S</tspan></text></g></g></svg>