<svg xmlns="http://www.w3.org/2000/svg" viewBox="0 0 124.84 124.84"><defs><style>.cls-1{fill:none;stroke:#ddd;stroke-miterlimit:10;}</style></defs><g id="Layer_2" data-name="Layer 2"><g id="Layer_1-2" data-name="Layer 1"><rect class="cls-1" x="0.5" y="0.5" width="123.84" height="123.84" rx="9.6"/><path fill="#ddd" d="M49.89,31.85a3.89,3.89,0,0,1,5.25,0L80.32,55.1a3.87,3.87,0,0,1,1.24,2.84H64.13a7.74,7.74,0,0,0-5.81,2.63V56a1.94,1.94,0,0,0-1.93-1.93H48.64A1.94,1.94,0,0,0,46.7,56v7.75a1.94,1.94,0,0,0,1.94,1.94h7.75V81.18H37a5.81,5.81,0,0,1-5.81-5.81V61.81H27.33a3.87,3.87,0,0,1-2.62-6.71ZM66.07,67.62V85.06H89.31V67.62Zm-5.81-1.93a3.87,3.87,0,0,1,3.87-3.88H91.25a3.87,3.87,0,0,1,3.87,3.88V85.06H99A1.94,1.94,0,0,1,100.93,87a5.81,5.81,0,0,1-5.81,5.81H60.26A5.81,5.81,0,0,1,54.45,87a1.94,1.94,0,0,1,1.94-1.93h3.87Z"/></g></g></svg>